<svg xmlns="http://www.w3.org/2000/svg" xmlns:xlink="http://www.w3.org/1999/xlink" width="384pt" height="384pt" viewBox="0 0 384 384" version="1.1">
<defs>
<linearGradient id="linear0" gradientUnits="userSpaceOnUse" x1="256" y1="512" x2="256" y2="0" gradientTransform="matrix(0.75,0,0,0.75,0,0)">
<stop offset="0" style="stop-color:rgb(67.843137%,86.27451%,100%);stop-opacity:1;"/>
<stop offset="0.503" style="stop-color:rgb(91.764706%,96.470588%,100%);stop-opacity:1;"/>
<stop offset="1" style="stop-color:rgb(91.764706%,96.470588%,100%);stop-opacity:1;"/>
</linearGradient>
<linearGradient id="linear1" gradientUnits="userSpaceOnUse" x1="256" y1="407" x2="256" y2="105" gradientTransform="matrix(0.75,0,0,0.75,0,0)">
<stop offset="0" style="stop-color:rgb(0%,75.294118%,100%);stop-opacity:1;"/>
<stop offset="1" style="stop-color:rgb(33.333333%,34.509804%,100%);stop-opacity:1;"/>
</linearGradient>
</defs>
<g id="surface405917">
<path style=" stroke:none;fill-rule:nonzero;fill:url(#linear0);" d="M 384 192 C 384 298.039062 298.039062 384 192 384 C 85.960938 384 0 298.039062 0 192 C 0 85.960938 85.960938 0 192 0 C 298.039062 0 384 85.960938 384 192 "/>
<path style=" stroke:none;fill-rule:nonzero;fill:url(#linear1);" d="M 186.527344 174.792969 C 182.328125 180.894531 145.464844 235.09375 145.464844 258.585938 C 145.464844 284.3125 166.34375 305.25 192 305.25 C 217.65625 305.25 238.535156 284.3125 238.535156 258.582031 C 238.535156 235.09375 201.675781 180.890625 197.472656 174.789062 C 194.980469 171.183594 189.019531 171.183594 186.527344 174.789062 Z M 237.359375 81.457031 C 234.867188 77.851562 228.90625 77.851562 226.414062 81.457031 C 221.777344 88.1875 198.648438 122.585938 198.648438 138.582031 C 198.648438 156.960938 213.5625 171.917969 231.886719 171.917969 C 250.214844 171.917969 265.125 156.964844 265.125 138.582031 C 265.125 122.585938 241.996094 88.191406 237.359375 81.457031 Z M 172.058594 158.582031 C 172.058594 146.085938 154.464844 119.910156 150.941406 114.792969 C 148.449219 111.1875 142.488281 111.1875 139.996094 114.792969 C 136.472656 119.910156 118.878906 146.089844 118.878906 158.582031 C 118.878906 173.289062 130.804688 185.25 145.46875 185.25 C 160.132812 185.25 172.058594 173.289062 172.058594 158.582031 Z M 172.058594 158.582031 "/>
</g>
</svg>
