<svg xmlns="http://www.w3.org/2000/svg" xmlns:xlink="http://www.w3.org/1999/xlink" width="384pt" height="384pt" viewBox="0 0 384 384" version="1.1">
<defs>
<linearGradient id="linear0" gradientUnits="userSpaceOnUse" x1="256" y1="512" x2="256" y2="0" gradientTransform="matrix(0.75,0,0,0.75,0,0)">
<stop offset="0" style="stop-color:rgb(67.843137%,86.27451%,100%);stop-opacity:1;"/>
<stop offset="0.503" style="stop-color:rgb(91.764706%,96.470588%,100%);stop-opacity:1;"/>
<stop offset="1" style="stop-color:rgb(91.764706%,96.470588%,100%);stop-opacity:1;"/>
</linearGradient>
<linearGradient id="linear1" gradientUnits="userSpaceOnUse" x1="256" y1="371.5" x2="256" y2="140.5" gradientTransform="matrix(0.75,0,0,0.75,0,0)">
<stop offset="0" style="stop-color:rgb(0%,75.294118%,100%);stop-opacity:1;"/>
<stop offset="1" style="stop-color:rgb(33.333333%,34.509804%,100%);stop-opacity:1;"/>
</linearGradient>
</defs>
<g id="surface405847">
<path style=" stroke:none;fill-rule:nonzero;fill:url(#linear0);" d="M 384 192 C 384 298.039062 298.039062 384 192 384 C 85.960938 384 0 298.039062 0 192 C 0 85.960938 85.960938 0 192 0 C 298.039062 0 384 85.960938 384 192 "/>
<path style=" stroke:none;fill-rule:nonzero;fill:url(#linear1);" d="M 224.75 212.550781 C 221.089844 192.871094 200.757812 180.648438 181.597656 187.023438 C 173.941406 168.933594 156.1875 158.683594 138.707031 158.683594 C 112.996094 158.683594 92.074219 179.609375 92.074219 205.328125 C 92.074219 209.539062 92.609375 213.613281 93.675781 217.515625 C 84.449219 223.691406 78.75 234.042969 78.75 245.308594 C 78.75 263.679688 93.695312 278.625 112.058594 278.625 L 218.648438 278.625 C 237.015625 278.625 251.957031 263.675781 251.957031 245.308594 C 251.957031 229.019531 240.214844 215.425781 224.75 212.550781 Z M 278.042969 159.242188 C 274.375 139.515625 254.023438 127.355469 234.878906 133.714844 C 227.675781 116.699219 211.023438 105.375 192 105.375 C 168.324219 105.375 148.925781 123.183594 145.96875 146.074219 C 151.152344 146.726562 156.289062 147.808594 161.089844 149.789062 C 172.253906 154.128906 181.941406 162.046875 188.648438 172.136719 C 208.726562 170.609375 228.03125 182.503906 235.496094 201.804688 C 246.730469 206.152344 255.679688 214.679688 260.738281 225.320312 L 271.941406 225.320312 C 290.308594 225.320312 305.25 210.371094 305.25 192.003906 C 305.25 175.714844 293.507812 162.121094 278.042969 159.246094 Z M 278.042969 159.242188 "/>
</g>
</svg>
