<svg xmlns="http://www.w3.org/2000/svg" xmlns:xlink="http://www.w3.org/1999/xlink" width="384pt" height="384pt" viewBox="0 0 384 384" version="1.1">
<defs>
<linearGradient id="linear0" gradientUnits="userSpaceOnUse" x1="256" y1="512" x2="256" y2="302" gradientTransform="matrix(0.75,0,0,0.75,0,0)">
<stop offset="0" style="stop-color:rgb(66.27451%,22.745098%,100%);stop-opacity:1;"/>
<stop offset="1" style="stop-color:rgb(100%,50.588235%,100%);stop-opacity:1;"/>
</linearGradient>
<linearGradient id="linear1" gradientUnits="userSpaceOnUse" x1="256" y1="342" x2="256" y2="0" gradientTransform="matrix(0.75,0,0,0.75,0,0)">
<stop offset="0" style="stop-color:rgb(100%,74.509804%,97.647059%);stop-opacity:1;"/>
<stop offset="1" style="stop-color:rgb(100%,94.509804%,100%);stop-opacity:1;"/>
</linearGradient>
</defs>
<g id="surface824427">
<path style=" stroke:none;fill-rule:nonzero;fill:url(#linear0);" d="M 0.75 237.75 C 0.75 231.535156 5.785156 226.5 12 226.5 C 37.90625 226.5 51.367188 235.472656 63.238281 243.390625 C 73.792969 250.425781 82.90625 256.5 102 256.5 C 121.09375 256.5 130.207031 250.425781 140.761719 243.390625 C 152.632812 235.472656 166.09375 226.5 192 226.5 C 217.90625 226.5 231.367188 235.472656 243.238281 243.390625 C 253.792969 250.425781 262.90625 256.5 282 256.5 C 301.09375 256.5 310.207031 250.425781 320.761719 243.390625 C 332.632812 235.472656 346.09375 226.5 372 226.5 C 378.214844 226.5 383.25 231.535156 383.25 237.75 C 383.25 243.964844 378.214844 249 372 249 C 352.90625 249 343.792969 255.074219 333.238281 262.109375 C 321.367188 270.027344 307.90625 279 282 279 C 256.09375 279 242.632812 270.027344 230.761719 262.109375 C 220.207031 255.074219 211.09375 249 192 249 C 172.90625 249 163.792969 255.074219 153.238281 262.109375 C 141.367188 270.027344 127.90625 279 102 279 C 76.09375 279 62.632812 270.027344 50.761719 262.109375 C 40.207031 255.074219 31.09375 249 12 249 C 5.785156 249 0.75 243.964844 0.75 237.75 Z M 372 279 C 346.09375 279 332.632812 287.972656 320.761719 295.890625 C 310.207031 302.925781 301.09375 309 282 309 C 262.90625 309 253.792969 302.925781 243.238281 295.890625 C 231.367188 287.972656 217.90625 279 192 279 C 166.09375 279 152.632812 287.972656 140.761719 295.890625 C 130.207031 302.925781 121.09375 309 102 309 C 82.90625 309 73.792969 302.925781 63.238281 295.890625 C 51.367188 287.972656 37.90625 279 12 279 C 5.785156 279 0.75 284.035156 0.75 290.25 C 0.75 296.464844 5.785156 301.5 12 301.5 C 31.09375 301.5 40.207031 307.574219 50.761719 314.609375 C 62.632812 322.527344 76.09375 331.5 102 331.5 C 127.90625 331.5 141.367188 322.527344 153.238281 314.609375 C 163.792969 307.574219 172.90625 301.5 192 301.5 C 211.09375 301.5 220.207031 307.574219 230.761719 314.609375 C 242.632812 322.527344 256.09375 331.5 282 331.5 C 307.90625 331.5 321.367188 322.527344 333.238281 314.609375 C 343.792969 307.574219 352.90625 301.5 372 301.5 C 378.214844 301.5 383.25 296.464844 383.25 290.25 C 383.25 284.035156 378.214844 279 372 279 Z M 372 331.5 C 346.09375 331.5 332.632812 340.472656 320.761719 348.390625 C 310.207031 355.425781 301.09375 361.5 282 361.5 C 262.90625 361.5 253.792969 355.425781 243.238281 348.390625 C 231.367188 340.472656 217.90625 331.5 192 331.5 C 166.09375 331.5 152.632812 340.472656 140.761719 348.390625 C 130.207031 355.425781 121.09375 361.5 102 361.5 C 82.90625 361.5 73.792969 355.425781 63.238281 348.390625 C 51.367188 340.472656 37.90625 331.5 12 331.5 C 5.785156 331.5 0.75 336.535156 0.75 342.75 C 0.75 348.964844 5.785156 354 12 354 C 31.09375 354 40.207031 360.074219 50.761719 367.109375 C 62.632812 375.027344 76.09375 384 102 384 C 127.90625 384 141.367188 375.027344 153.238281 367.109375 C 163.792969 360.074219 172.90625 354 192 354 C 211.09375 354 220.207031 360.074219 230.761719 367.109375 C 242.632812 375.027344 256.09375 384 282 384 C 307.90625 384 321.367188 375.027344 333.238281 367.109375 C 343.792969 360.074219 352.90625 354 372 354 C 378.214844 354 383.25 348.964844 383.25 342.75 C 383.25 336.535156 378.214844 331.5 372 331.5 Z M 372 331.5 "/>
<path style=" stroke:none;fill-rule:nonzero;fill:url(#linear1);" d="M 383.25 191.25 C 383.25 197.464844 378.214844 202.5 372 202.5 L 349.5 202.5 C 343.285156 202.5 338.25 197.464844 338.25 191.25 C 338.25 185.035156 343.285156 180 349.5 180 L 372 180 C 378.214844 180 383.25 185.035156 383.25 191.25 Z M 34.5 180 L 12 180 C 5.785156 180 0.75 185.035156 0.75 191.25 C 0.75 197.464844 5.785156 202.5 12 202.5 L 34.5 202.5 C 40.714844 202.5 45.75 197.464844 45.75 191.25 C 45.75 185.035156 40.714844 180 34.5 180 Z M 311.324219 56.015625 L 295.414062 71.925781 C 291.019531 76.320312 291.019531 83.441406 295.414062 87.835938 C 299.808594 92.230469 306.929688 92.230469 311.324219 87.835938 L 327.234375 71.925781 C 331.628906 67.53125 331.628906 60.410156 327.234375 56.015625 C 322.839844 51.621094 315.71875 51.621094 311.324219 56.015625 Z M 192 45 C 198.214844 45 203.25 39.964844 203.25 33.75 L 203.25 11.25 C 203.25 5.035156 198.214844 0 192 0 C 185.785156 0 180.75 5.035156 180.75 11.25 L 180.75 33.75 C 180.75 39.964844 185.785156 45 192 45 Z M 88.585938 87.835938 C 92.980469 83.441406 92.980469 76.320312 88.585938 71.925781 L 72.675781 56.015625 C 68.28125 51.621094 61.160156 51.621094 56.765625 56.015625 C 52.371094 60.410156 52.371094 67.53125 56.765625 71.925781 L 72.675781 87.835938 C 77.070312 92.230469 84.191406 92.230469 88.585938 87.835938 Z M 192 67.5 C 123.765625 67.5 68.25 123.015625 68.25 191.25 C 68.25 213.796875 74.339844 235.613281 85.703125 254.632812 C 90.296875 255.8125 95.585938 256.5 102 256.5 C 121.09375 256.5 130.207031 250.425781 140.761719 243.390625 C 152.632812 235.472656 166.09375 226.5 192 226.5 C 217.90625 226.5 231.367188 235.472656 243.238281 243.390625 C 253.792969 250.425781 262.90625 256.5 282 256.5 C 288.414062 256.5 293.703125 255.8125 298.296875 254.632812 C 309.660156 235.613281 315.75 213.796875 315.75 191.25 C 315.75 123.015625 260.234375 67.5 192 67.5 Z M 192 67.5 "/>
</g>
</svg>
