<svg xmlns="http://www.w3.org/2000/svg" xmlns:xlink="http://www.w3.org/1999/xlink" width="384pt" height="384pt" viewBox="0 0 384 384" version="1.1">
<g id="surface405817">
<path style=" stroke:none;fill-rule:nonzero;fill:rgb(64.313725%,76.078431%,96.862745%);fill-opacity:1;" d="M 134.398438 179.199219 L 57.601562 179.199219 C 50.53125 179.199219 44.800781 173.46875 44.800781 166.398438 C 44.800781 159.332031 50.53125 153.601562 57.601562 153.601562 L 134.402344 153.601562 L 134.398438 153.601562 C 141.46875 153.601562 147.199219 159.332031 147.199219 166.398438 C 147.199219 173.46875 141.46875 179.199219 134.398438 179.199219 Z M 134.398438 179.199219 "/>
<path style=" stroke:none;fill-rule:nonzero;fill:rgb(77.647059%,84.705882%,98.431373%);fill-opacity:1;" d="M 326.398438 179.199219 L 185.601562 179.199219 C 178.53125 179.199219 172.800781 173.46875 172.800781 166.398438 C 172.800781 159.332031 178.53125 153.601562 185.601562 153.601562 L 326.402344 153.601562 L 326.398438 153.601562 C 333.46875 153.601562 339.199219 159.332031 339.199219 166.398438 C 339.199219 173.46875 333.46875 179.199219 326.398438 179.199219 Z M 326.398438 179.199219 "/>
<path style=" stroke:none;fill-rule:nonzero;fill:rgb(64.313725%,76.470588%,99.215686%);fill-opacity:1;" d="M 326.398438 153.601562 L 307.199219 153.601562 C 314.269531 153.601562 320 159.332031 320 166.398438 C 320 173.46875 314.269531 179.199219 307.199219 179.199219 L 326.398438 179.199219 C 333.46875 179.199219 339.199219 173.46875 339.199219 166.398438 C 339.199219 159.332031 333.46875 153.601562 326.398438 153.601562 Z M 326.398438 153.601562 "/>
<path style=" stroke:none;fill-rule:nonzero;fill:rgb(90.980392%,92.941176%,98.823529%);fill-opacity:1;" d="M 281.601562 121.601562 L 140.800781 121.601562 C 133.730469 121.601562 128 115.871094 128 108.800781 C 128 101.730469 133.730469 96 140.800781 96 L 281.601562 96 C 290.085938 96 298.226562 92.628906 304.226562 86.628906 C 310.230469 80.625 313.601562 72.488281 313.601562 64 C 313.601562 55.511719 310.230469 47.375 304.226562 41.371094 C 298.226562 35.371094 290.085938 32 281.601562 32 C 273.113281 32 264.972656 35.371094 258.972656 41.371094 C 252.972656 47.375 249.601562 55.511719 249.601562 64 C 249.601562 71.070312 243.871094 76.800781 236.800781 76.800781 C 229.730469 76.800781 224 71.070312 224 64 C 224 48.722656 230.070312 34.074219 240.871094 23.269531 C 251.671875 12.46875 266.324219 6.398438 281.601562 6.398438 C 296.875 6.398438 311.527344 12.46875 322.328125 23.269531 C 333.132812 34.074219 339.199219 48.722656 339.199219 64 C 339.199219 79.277344 333.132812 93.925781 322.328125 104.730469 C 311.527344 115.53125 296.875 121.601562 281.601562 121.601562 Z M 281.601562 121.601562 "/>
<path style=" stroke:none;fill-rule:nonzero;fill:rgb(79.215686%,85.098039%,98.823529%);fill-opacity:1;" d="M 230.398438 64 C 230.390625 67.089844 229.25 70.070312 227.199219 72.382812 C 230.6875 76.425781 236.320312 77.863281 241.320312 75.996094 C 246.320312 74.125 249.621094 69.335938 249.601562 64 C 249.625 57.214844 251.808594 50.613281 255.835938 45.15625 C 259.863281 39.695312 265.523438 35.660156 272 33.632812 C 268.902344 32.597656 265.664062 32.046875 262.398438 32 C 253.917969 32.011719 245.78125 35.386719 239.785156 41.382812 C 233.785156 47.382812 230.410156 55.515625 230.398438 64 Z M 230.398438 64 "/>
<path style=" stroke:none;fill-rule:nonzero;fill:rgb(79.215686%,85.098039%,98.823529%);fill-opacity:1;" d="M 281.601562 6.398438 C 278.382812 6.421875 275.171875 6.710938 272 7.265625 C 291.066406 10.601562 307.179688 23.292969 314.894531 41.042969 C 322.609375 58.792969 320.890625 79.230469 310.324219 95.445312 C 299.757812 111.664062 281.753906 121.488281 262.398438 121.601562 L 281.601562 121.601562 C 302.179688 121.601562 321.195312 110.621094 331.484375 92.800781 C 341.773438 74.976562 341.773438 53.023438 331.484375 35.199219 C 321.195312 17.378906 302.179688 6.398438 281.601562 6.398438 Z M 281.601562 6.398438 "/>
<path style=" stroke:none;fill-rule:nonzero;fill:rgb(90.980392%,92.941176%,98.823529%);fill-opacity:1;" d="M 294.398438 377.601562 C 272.339844 377.574219 251.195312 368.800781 235.597656 353.203125 C 220 337.605469 211.226562 316.457031 211.199219 294.398438 C 211.199219 287.332031 216.929688 281.601562 224 281.601562 C 231.070312 281.601562 236.800781 287.332031 236.800781 294.398438 C 236.800781 309.675781 242.867188 324.328125 253.671875 335.128906 C 264.472656 345.929688 279.125 352 294.398438 352 C 309.675781 352 324.328125 345.929688 335.128906 335.128906 C 345.929688 324.328125 352 309.675781 352 294.398438 C 352 279.125 345.929688 264.472656 335.128906 253.671875 C 324.328125 242.867188 309.675781 236.800781 294.398438 236.800781 L 19.199219 236.800781 C 12.128906 236.800781 6.398438 231.070312 6.398438 224 C 6.398438 216.929688 12.128906 211.199219 19.199219 211.199219 L 294.398438 211.199219 C 324.125 211.199219 351.589844 227.058594 366.453125 252.800781 C 381.316406 278.542969 381.316406 310.257812 366.453125 336 C 351.589844 361.742188 324.125 377.601562 294.398438 377.601562 Z M 294.398438 377.601562 "/>
<path style=" stroke:none;fill-rule:nonzero;fill:rgb(79.215686%,85.098039%,98.823529%);fill-opacity:1;" d="M 236.800781 294.398438 C 236.824219 289.0625 233.519531 284.277344 228.519531 282.40625 C 223.523438 280.535156 217.886719 281.976562 214.398438 286.015625 C 216.449219 288.328125 217.589844 291.308594 217.601562 294.398438 C 217.507812 311.382812 224.953125 327.53125 237.929688 338.484375 C 250.90625 349.441406 268.074219 354.074219 284.800781 351.136719 C 271.394531 348.859375 259.222656 341.914062 250.441406 331.53125 C 241.65625 321.152344 236.824219 308 236.800781 294.398438 Z M 236.800781 294.398438 "/>
<path style=" stroke:none;fill-rule:nonzero;fill:rgb(79.215686%,85.098039%,98.823529%);fill-opacity:1;" d="M 294.398438 211.199219 L 275.199219 211.199219 C 303.691406 211.332031 330.132812 226.03125 345.285156 250.160156 C 360.433594 274.289062 362.183594 304.492188 349.917969 330.210938 C 337.65625 355.925781 313.085938 373.582031 284.800781 377 C 307.601562 379.753906 330.527344 372.960938 348.148438 358.230469 C 365.765625 343.496094 376.511719 322.136719 377.839844 299.207031 C 379.167969 276.28125 370.960938 253.824219 355.15625 237.15625 C 339.355469 220.488281 317.367188 211.09375 294.398438 211.199219 Z M 294.398438 211.199219 "/>
<path style=" stroke:none;fill-rule:nonzero;fill:rgb(100%,100%,100%);fill-opacity:1;" d="M 76.800781 153.601562 L 57.601562 153.601562 C 50.53125 153.601562 44.800781 159.332031 44.800781 166.398438 C 44.800781 173.46875 50.53125 179.199219 57.601562 179.199219 L 76.800781 179.199219 C 69.730469 179.199219 64 173.46875 64 166.398438 C 64 159.332031 69.730469 153.601562 76.800781 153.601562 Z M 160 96 L 140.800781 96 C 133.730469 96 128 101.730469 128 108.800781 C 128 115.871094 133.730469 121.601562 140.800781 121.601562 L 160 121.601562 C 152.929688 121.601562 147.199219 115.871094 147.199219 108.800781 C 147.199219 101.730469 152.929688 96 160 96 Z M 19.199219 236.800781 L 38.398438 236.800781 C 31.332031 236.800781 25.601562 231.070312 25.601562 224 C 25.601562 216.929688 31.332031 211.199219 38.398438 211.199219 L 19.199219 211.199219 C 12.128906 211.199219 6.398438 216.929688 6.398438 224 C 6.398438 231.070312 12.128906 236.800781 19.199219 236.800781 Z M 19.199219 236.800781 "/>
<path style=" stroke:none;fill-rule:nonzero;fill:rgb(100%,100%,100%);fill-opacity:1;" d="M 19.199219 230.398438 L 70.398438 230.398438 L 70.398438 243.199219 L 19.199219 243.199219 Z M 19.199219 230.398438 "/>
<path style=" stroke:none;fill-rule:nonzero;fill:rgb(25.882353%,55.294118%,100%);fill-opacity:1;" d="M 57.601562 147.199219 C 50.742188 147.199219 44.402344 150.859375 40.972656 156.800781 C 37.542969 162.742188 37.542969 170.058594 40.972656 176 C 44.402344 181.941406 50.742188 185.601562 57.601562 185.601562 L 134.402344 185.601562 L 134.398438 185.601562 C 141.257812 185.601562 147.597656 181.941406 151.027344 176 C 154.457031 170.058594 154.457031 162.742188 151.027344 156.800781 C 147.597656 150.859375 141.257812 147.199219 134.398438 147.199219 Z M 140.800781 166.398438 C 140.800781 168.097656 140.125 169.726562 138.925781 170.925781 C 137.726562 172.125 136.097656 172.800781 134.398438 172.800781 L 57.601562 172.800781 C 54.066406 172.800781 51.199219 169.933594 51.199219 166.398438 C 51.199219 162.867188 54.066406 160 57.601562 160 L 134.402344 160 L 134.398438 160 C 136.097656 160 137.726562 160.675781 138.925781 161.875 C 140.125 163.074219 140.800781 164.703125 140.800781 166.398438 Z M 185.601562 147.199219 C 178.742188 147.199219 172.402344 150.859375 168.972656 156.800781 C 165.542969 162.742188 165.542969 170.058594 168.972656 176 C 172.402344 181.941406 178.742188 185.601562 185.601562 185.601562 L 326.402344 185.601562 L 326.398438 185.601562 C 333.257812 185.601562 339.597656 181.941406 343.027344 176 C 346.457031 170.058594 346.457031 162.742188 343.027344 156.800781 C 339.597656 150.859375 333.257812 147.199219 326.398438 147.199219 Z M 332.800781 166.398438 C 332.800781 168.097656 332.125 169.726562 330.925781 170.925781 C 329.726562 172.125 328.097656 172.800781 326.398438 172.800781 L 185.601562 172.800781 C 182.066406 172.800781 179.199219 169.933594 179.199219 166.398438 C 179.199219 162.867188 182.066406 160 185.601562 160 L 326.402344 160 L 326.398438 160 C 328.097656 160 329.726562 160.675781 330.925781 161.875 C 332.125 163.074219 332.800781 164.703125 332.800781 166.398438 Z M 281.601562 0 C 264.632812 0.0195312 248.363281 6.765625 236.367188 18.765625 C 224.367188 30.765625 217.617188 47.03125 217.601562 64 C 217.601562 70.859375 221.257812 77.199219 227.199219 80.628906 C 233.140625 84.058594 240.460938 84.058594 246.398438 80.628906 C 252.339844 77.199219 256 70.859375 256 64 C 256 57.210938 258.695312 50.699219 263.5 45.898438 C 268.300781 41.097656 274.808594 38.398438 281.601562 38.398438 C 288.390625 38.398438 294.902344 41.097656 299.703125 45.898438 C 304.503906 50.699219 307.199219 57.210938 307.199219 64 C 307.199219 70.789062 304.503906 77.300781 299.703125 82.101562 C 294.902344 86.902344 288.390625 89.601562 281.601562 89.601562 L 140.800781 89.601562 C 133.941406 89.601562 127.601562 93.257812 124.171875 99.199219 C 120.742188 105.140625 120.742188 112.460938 124.171875 118.398438 C 127.601562 124.339844 133.941406 128 140.800781 128 L 281.601562 128 C 304.464844 128 325.59375 115.800781 337.027344 96 C 348.457031 76.199219 348.457031 51.800781 337.027344 32 C 325.59375 12.199219 304.464844 0 281.601562 0 Z M 281.601562 115.199219 L 140.800781 115.199219 C 137.265625 115.199219 134.398438 112.335938 134.398438 108.800781 C 134.398438 105.265625 137.265625 102.398438 140.800781 102.398438 L 281.601562 102.398438 C 291.785156 102.398438 301.550781 98.355469 308.753906 91.152344 C 315.953125 83.953125 320 74.183594 320 64 C 320 53.816406 315.953125 44.046875 308.753906 36.847656 C 301.550781 29.644531 291.785156 25.601562 281.601562 25.601562 C 271.414062 25.601562 261.648438 29.644531 254.445312 36.847656 C 247.246094 44.046875 243.199219 53.816406 243.199219 64 C 243.199219 67.535156 240.335938 70.398438 236.800781 70.398438 C 233.265625 70.398438 230.398438 67.535156 230.398438 64 C 230.398438 50.421875 235.792969 37.398438 245.394531 27.796875 C 254.996094 18.195312 268.019531 12.800781 281.601562 12.800781 C 295.179688 12.800781 308.203125 18.195312 317.804688 27.796875 C 327.40625 37.398438 332.800781 50.421875 332.800781 64 C 332.800781 77.578125 327.40625 90.601562 317.804688 100.203125 C 308.203125 109.804688 295.179688 115.199219 281.601562 115.199219 Z M 281.601562 115.199219 "/>
<path style=" stroke:none;fill-rule:nonzero;fill:rgb(25.882353%,55.294118%,100%);fill-opacity:1;" d="M 51.199219 236.800781 C 51.199219 240.335938 48.335938 243.199219 44.800781 243.199219 C 41.265625 243.199219 38.398438 240.335938 38.398438 236.800781 C 38.398438 233.265625 41.265625 230.398438 44.800781 230.398438 C 48.335938 230.398438 51.199219 233.265625 51.199219 236.800781 "/>
<path style=" stroke:none;fill-rule:nonzero;fill:rgb(25.882353%,55.294118%,100%);fill-opacity:1;" d="M 19.199219 243.199219 C 22.734375 243.199219 25.601562 240.335938 25.601562 236.800781 C 25.601562 233.265625 22.734375 230.398438 19.199219 230.398438 C 15.664062 230.398438 12.800781 227.535156 12.800781 224 C 12.800781 220.464844 15.664062 217.601562 19.199219 217.601562 L 294.398438 217.601562 C 314.769531 217.601562 334.304688 225.691406 348.707031 240.09375 C 363.109375 254.496094 371.199219 274.03125 371.199219 294.398438 C 371.199219 314.769531 363.109375 334.304688 348.707031 348.707031 C 334.304688 363.109375 314.769531 371.199219 294.398438 371.199219 C 274.03125 371.199219 254.496094 363.109375 240.09375 348.707031 C 225.691406 334.304688 217.601562 314.769531 217.601562 294.398438 C 217.601562 290.867188 220.464844 288 224 288 C 227.535156 288 230.398438 290.867188 230.398438 294.398438 C 230.398438 311.375 237.144531 327.652344 249.144531 339.65625 C 261.148438 351.65625 277.425781 358.398438 294.398438 358.398438 C 311.375 358.398438 327.652344 351.65625 339.65625 339.65625 C 351.65625 327.652344 358.398438 311.375 358.398438 294.398438 C 358.398438 277.425781 351.65625 261.148438 339.65625 249.144531 C 327.652344 237.144531 311.375 230.398438 294.398438 230.398438 L 70.398438 230.398438 C 66.867188 230.398438 64 233.265625 64 236.800781 C 64 240.335938 66.867188 243.199219 70.398438 243.199219 L 294.398438 243.199219 C 307.980469 243.199219 321.003906 248.59375 330.605469 258.195312 C 340.207031 267.796875 345.601562 280.820312 345.601562 294.398438 C 345.601562 307.980469 340.207031 321.003906 330.605469 330.605469 C 321.003906 340.207031 307.980469 345.601562 294.398438 345.601562 C 280.820312 345.601562 267.796875 340.207031 258.195312 330.605469 C 248.59375 321.003906 243.199219 307.980469 243.199219 294.398438 C 243.199219 287.539062 239.539062 281.203125 233.601562 277.773438 C 227.660156 274.34375 220.339844 274.34375 214.398438 277.773438 C 208.460938 281.203125 204.800781 287.539062 204.800781 294.398438 C 204.800781 318.164062 214.238281 340.953125 231.042969 357.757812 C 247.847656 374.558594 270.636719 384 294.398438 384 C 318.164062 384 340.953125 374.558594 357.757812 357.757812 C 374.558594 340.953125 384 318.164062 384 294.398438 C 384 270.636719 374.558594 247.847656 357.757812 231.042969 C 340.953125 214.238281 318.164062 204.800781 294.398438 204.800781 L 19.199219 204.800781 C 12.339844 204.800781 6.003906 208.460938 2.574219 214.398438 C -0.859375 220.339844 -0.859375 227.660156 2.574219 233.601562 C 6.003906 239.539062 12.339844 243.199219 19.199219 243.199219 Z M 19.199219 243.199219 "/>
</g>
</svg>
